<?xml version="1.0" encoding="UTF-8" standalone="no"?>
<!-- Created with Inkscape (http://www.inkscape.org/) -->

<svg
   width="5.7137413mm"
   height="7.837883mm"
   viewBox="0 0 5.7137413 7.837883"
   version="1.1"
   id="svg635"
   inkscape:version="1.1.2 (0a00cf5339, 2022-02-04)"
   sodipodi:docname="busy.svg"
   xmlns:inkscape="http://www.inkscape.org/namespaces/inkscape"
   xmlns:sodipodi="http://sodipodi.sourceforge.net/DTD/sodipodi-0.dtd"
   xmlns="http://www.w3.org/2000/svg"
   xmlns:svg="http://www.w3.org/2000/svg">
  <sodipodi:namedview
     id="namedview637"
     pagecolor="#ffffff"
     bordercolor="#cccccc"
     borderopacity="1"
     inkscape:pageshadow="0"
     inkscape:pageopacity="1"
     inkscape:pagecheckerboard="0"
     inkscape:document-units="mm"
     showgrid="false"
     fit-margin-top="0"
     fit-margin-left="0"
     fit-margin-right="0"
     fit-margin-bottom="0"
     inkscape:zoom="0.73139029"
     inkscape:cx="-326.09128"
     inkscape:cy="244.73937"
     inkscape:window-width="1920"
     inkscape:window-height="1007"
     inkscape:window-x="0"
     inkscape:window-y="0"
     inkscape:window-maximized="1"
     inkscape:current-layer="layer1" />
  <defs
     id="defs632" />
  <g
     inkscape:label="Слой 1"
     inkscape:groupmode="layer"
     id="layer1"
     transform="translate(-118.69246,-83.987271)">
    <path
       style="fill:#aa8800;stroke-width:0.999997"
       d="m 118.76266,91.76889 c -0.0652,-0.05128 -0.0702,-0.07027 -0.0702,-0.263608 0,-0.277462 0.0368,-0.325765 0.2606,-0.341955 l 0.16192,-0.01171 0.017,-0.203523 c 0.0223,-0.267518 0.0581,-0.45822 0.1257,-0.670008 0.13077,-0.409722 0.29267,-0.643985 0.81971,-1.18619 0.22802,-0.234574 0.46016,-0.495486 0.51589,-0.579804 0.26859,-0.406474 0.27276,-0.795338 0.0129,-1.202083 -0.0482,-0.07552 -0.2804,-0.335857 -0.5159,-0.578539 -0.25373,-0.261482 -0.48465,-0.527278 -0.56681,-0.652438 -0.22608,-0.344363 -0.34756,-0.723127 -0.39093,-1.218775 l -0.018,-0.206585 h -0.10037 c -0.1331,0 -0.26322,-0.04742 -0.29548,-0.107674 -0.0144,-0.02682 -0.026,-0.137418 -0.026,-0.245781 0,-0.171484 0.008,-0.20454 0.0617,-0.254986 l 0.0617,-0.05796 h 2.73255 2.73253 l 0.0579,0.06169 c 0.0482,0.05139 0.0579,0.09332 0.0579,0.251052 0,0.104147 -0.008,0.208775 -0.0165,0.232507 -0.0256,0.06658 -0.15483,0.121146 -0.28703,0.121146 h -0.11964 l -0.0139,0.113289 c -0.008,0.06231 -0.0211,0.188994 -0.0298,0.281523 -0.0362,0.382248 -0.20198,0.817363 -0.43217,1.134351 -0.0547,0.07526 -0.28176,0.324112 -0.50467,0.553002 -0.42398,0.435354 -0.58801,0.653679 -0.66492,0.884996 -0.0905,0.272308 -0.0362,0.580976 0.15485,0.880589 0.0481,0.07553 0.27994,0.335243 0.51503,0.577145 0.45091,0.463974 0.6351,0.709367 0.76564,1.020075 0.0869,0.206713 0.17908,0.608488 0.17963,0.782538 2.1e-4,0.06047 0.008,0.146087 0.0165,0.190252 0.0154,0.07693 0.0227,0.08078 0.17722,0.09195 0.22297,0.01616 0.25987,0.06468 0.25987,0.341902 0,0.354793 0.32145,0.318856 -2.8522,0.318856 -2.70301,0 -2.71194,-2.01e-4 -2.78196,-0.05526 z m 4.49936,-0.653044 c 0.0231,-0.02305 0.0419,-0.05752 0.0419,-0.07661 0,-0.05866 -0.41049,-0.577744 -0.74225,-0.938618 -0.41729,-0.453892 -0.94594,-0.942078 -1.02015,-0.942078 -0.0849,0 -0.52343,0.36167 -0.90319,0.744775 -0.32031,0.323125 -0.63723,0.720291 -0.80072,1.003481 -0.0718,0.124423 -0.0745,0.138691 -0.0368,0.192662 l 0.0408,0.05828 h 1.68924 c 1.50013,0 1.69393,-0.0048 1.73113,-0.04191 z m -1.45431,-3.994284 c 0.50998,-0.44575 0.92158,-0.878315 0.94056,-0.98848 0.0168,-0.09749 -0.21093,-0.06439 -0.60389,0.08776 -0.40853,0.158184 -0.62738,0.203517 -0.86633,0.179454 -0.2051,-0.02065 -0.53898,-0.09647 -0.75302,-0.170994 -0.0843,-0.02935 -0.15328,-0.04305 -0.15328,-0.03045 0,0.02186 1.14625,1.147087 1.16853,1.147087 0.006,0 0.12624,-0.100964 0.26743,-0.224371 z"
       id="path22178" />
  </g>
</svg>
