<?xml version="1.0" encoding="UTF-8" standalone="no"?>
<!-- Created with Inkscape (http://www.inkscape.org/) -->

<svg
   width="8.135191mm"
   height="8.1352406mm"
   viewBox="0 0 8.135191 8.1352406"
   version="1.1"
   id="svg7954"
   inkscape:version="1.1.2 (0a00cf5339, 2022-02-04)"
   sodipodi:docname="disconn.svg"
   xmlns:inkscape="http://www.inkscape.org/namespaces/inkscape"
   xmlns:sodipodi="http://sodipodi.sourceforge.net/DTD/sodipodi-0.dtd"
   xmlns="http://www.w3.org/2000/svg"
   xmlns:svg="http://www.w3.org/2000/svg">
  <sodipodi:namedview
     id="namedview7956"
     pagecolor="#ffffff"
     bordercolor="#cccccc"
     borderopacity="1"
     inkscape:pageshadow="0"
     inkscape:pageopacity="1"
     inkscape:pagecheckerboard="0"
     inkscape:document-units="mm"
     showgrid="false"
     fit-margin-top="0"
     fit-margin-left="0"
     fit-margin-right="0"
     fit-margin-bottom="0"
     inkscape:zoom="11.702245"
     inkscape:cx="24.012487"
     inkscape:cy="33.583301"
     inkscape:window-width="1920"
     inkscape:window-height="1007"
     inkscape:window-x="0"
     inkscape:window-y="0"
     inkscape:window-maximized="1"
     inkscape:current-layer="layer1" />
  <defs
     id="defs7951" />
  <g
     inkscape:label="Слой 1"
     inkscape:groupmode="layer"
     id="layer1"
     transform="translate(-123.63155,-117.84347)">
    <path
       style="fill:#808080;fill-opacity:1;stroke-width:0.0324796"
       d="m 125.97956,125.0466 c -0.3391,-0.0891 -0.64881,-0.26732 -0.89423,-0.51453 -0.60317,-0.60757 -0.73847,-1.46783 -0.35176,-2.23666 0.0964,-0.19162 0.20622,-0.32455 0.59017,-0.7142 0.3755,-0.3811 0.49458,-0.48305 0.58363,-0.49977 0.15764,-0.0297 0.323,0.0556 0.38203,0.19708 0.0838,0.2007 0.0413,0.27568 -0.42913,0.75758 -0.55997,0.57358 -0.61127,0.66964 -0.61127,1.14478 0,0.30664 0.009,0.3596 0.0895,0.52349 0.10723,0.21838 0.38327,0.48968 0.59912,0.58882 0.12816,0.0589 0.21558,0.0716 0.49648,0.0725 0.3914,7.9e-4 0.52197,-0.043 0.79337,-0.26909 0.19147,-0.15946 0.29713,-0.18853 0.45118,-0.12413 0.13065,0.0547 0.21656,0.19357 0.21656,0.35023 0,0.22766 -0.59912,0.64378 -1.06496,0.73967 -0.23493,0.0483 -0.63487,0.0409 -0.85072,-0.0158 z m 2.6911,-0.0951 c -0.0468,-0.0254 -0.10764,-0.0943 -0.13528,-0.15303 -0.0276,-0.0588 -0.56287,-1.32598 -1.1894,-2.81608 -0.79792,-1.89775 -1.13892,-2.74444 -1.13841,-2.82665 0.002,-0.35543 0.50498,-0.45246 0.65761,-0.12691 0.0276,0.0589 0.56287,1.32601 1.1895,2.81589 0.80073,1.90381 1.13912,2.74386 1.13861,2.82665 -0.002,0.25799 -0.2845,0.40963 -0.52263,0.28013 z m 0.56728,-2.25374 c -0.11466,-0.072 -0.18782,-0.24569 -0.15635,-0.37116 0.0112,-0.0445 0.21616,-0.28171 0.4555,-0.52696 0.56101,-0.57484 0.61476,-0.67565 0.61476,-1.15299 0,-0.30664 -0.009,-0.35959 -0.0895,-0.52348 -0.10777,-0.21947 -0.38726,-0.49353 -0.60043,-0.58874 -0.10093,-0.0451 -0.24585,-0.0739 -0.41926,-0.0834 -0.34454,-0.0188 -0.57204,0.051 -0.84253,0.25847 -0.24113,0.18494 -0.32331,0.21011 -0.47668,0.146 -0.13194,-0.0552 -0.21782,-0.19345 -0.21782,-0.35075 0,-0.22676 0.57141,-0.63005 1.03066,-0.72744 0.46308,-0.0982 0.84049,-0.0523 1.27465,0.15492 0.64228,0.30658 1.07149,0.9889 1.07149,1.70333 0,0.32614 -0.0491,0.53421 -0.20227,0.85576 -0.11808,0.24802 -0.17988,0.32523 -0.60627,0.75746 -0.4263,0.43212 -0.48801,0.48291 -0.60427,0.49718 -0.0936,0.0115 -0.15778,-0.002 -0.23166,-0.0483 z"
       id="path21" />
  </g>
</svg>
