<?xml version="1.0" encoding="UTF-8" standalone="no"?>
<!-- Created with Inkscape (http://www.inkscape.org/) -->

<svg
   width="8.2553616mm"
   height="8.2578831mm"
   viewBox="0 0 8.2553616 8.2578831"
   version="1.1"
   id="svg499"
   inkscape:version="1.1.2 (0a00cf5339, 2022-02-04)"
   sodipodi:docname="idle.svg"
   xmlns:inkscape="http://www.inkscape.org/namespaces/inkscape"
   xmlns:sodipodi="http://sodipodi.sourceforge.net/DTD/sodipodi-0.dtd"
   xmlns="http://www.w3.org/2000/svg"
   xmlns:svg="http://www.w3.org/2000/svg">
  <sodipodi:namedview
     id="namedview501"
     pagecolor="#ffffff"
     bordercolor="#cccccc"
     borderopacity="1"
     inkscape:pageshadow="0"
     inkscape:pageopacity="1"
     inkscape:pagecheckerboard="0"
     inkscape:document-units="mm"
     showgrid="false"
     fit-margin-top="0"
     fit-margin-left="0"
     fit-margin-right="0"
     fit-margin-bottom="0"
     inkscape:zoom="0.73139029"
     inkscape:cx="121.00243"
     inkscape:cy="58.792139"
     inkscape:window-width="1920"
     inkscape:window-height="1007"
     inkscape:window-x="0"
     inkscape:window-y="0"
     inkscape:window-maximized="1"
     inkscape:current-layer="layer1" />
  <defs
     id="defs496" />
  <g
     inkscape:label="Слой 1"
     inkscape:groupmode="layer"
     id="layer1"
     transform="translate(-62.435049,-132.97581)">
    <path
       id="path25451"
       style="fill:#743a8d;fill-opacity:1;stroke-width:1"
       d="m 66.53857,132.97583 c -1.06275,0.005 -2.10748,0.42268 -2.89595,1.21388 -0.62852,0.63069 -1.02619,1.40603 -1.16943,2.27945 -0.0658,0.40133 -0.0438,1.13686 0.0455,1.52135 0.18869,0.81263 0.55239,1.46824 1.1374,2.05 0.59968,0.59633 1.38211,1.00008 2.22519,1.14774 0.34883,0.0611 0.98098,0.0604 1.34255,-0.001 0.86998,-0.14787 1.63466,-0.5417 2.25413,-1.16117 0.33705,-0.33705 0.56207,-0.64657 0.76946,-1.05833 0.80045,-1.58925 0.49691,-3.50463 -0.75499,-4.76354 -0.34894,-0.35088 -0.6535,-0.57377 -1.07281,-0.78496 -0.59916,-0.30178 -1.24337,-0.44663 -1.88102,-0.44339 z m 0.0367,0.77515 c 0.7369,-3.9e-4 1.32992,0.18708 1.9265,0.60823 1.04446,0.73732 1.58765,2.01917 1.38493,3.26905 -0.23663,1.45883 -1.37136,2.58703 -2.82309,2.80706 -1.48262,0.22472 -2.92726,-0.5531 -3.56205,-1.91771 -0.6805,-1.46289 -0.20839,-3.22377 1.11414,-4.15737 0.59509,-0.42008 1.20142,-0.60887 1.95957,-0.60926 z m 1.57303,1.84691 c -0.0728,5.7e-4 -0.14416,0.0162 -0.2067,0.0486 -0.056,0.029 -0.48644,0.43416 -0.95653,0.90072 -0.4701,0.46657 -0.8654,0.85262 -0.8785,0.85732 -0.0131,0.005 -0.18919,-0.15018 -0.39171,-0.34417 -0.20251,-0.19399 -0.41372,-0.37164 -0.46922,-0.39481 -0.42123,-0.176 -0.84948,0.28312 -0.64182,0.68833 0.0507,0.099 0.88887,0.9587 1.16065,1.19063 0.13225,0.11288 0.15051,0.11937 0.32504,0.11937 0.17138,0 0.19545,-0.008 0.32608,-0.11317 0.23887,-0.19166 2.15682,-2.14016 2.21072,-2.24586 0.0736,-0.14464 0.0493,-0.3748 -0.0543,-0.51056 -0.096,-0.12582 -0.26356,-0.19762 -0.42375,-0.19637 z" />
  </g>
</svg>
