<?xml version="1.0" encoding="UTF-8" standalone="no"?>
<!-- Created with Inkscape (http://www.inkscape.org/) -->

<svg
   width="8.2555637mm"
   height="8.2581482mm"
   viewBox="0 0 8.2555637 8.2581482"
   version="1.1"
   id="svg575"
   inkscape:version="1.1.2 (0a00cf5339, 2022-02-04)"
   sodipodi:docname="measure.svg"
   xmlns:inkscape="http://www.inkscape.org/namespaces/inkscape"
   xmlns:sodipodi="http://sodipodi.sourceforge.net/DTD/sodipodi-0.dtd"
   xmlns="http://www.w3.org/2000/svg"
   xmlns:svg="http://www.w3.org/2000/svg">
  <sodipodi:namedview
     id="namedview577"
     pagecolor="#ffffff"
     bordercolor="#cccccc"
     borderopacity="1"
     inkscape:pageshadow="0"
     inkscape:pageopacity="1"
     inkscape:pagecheckerboard="0"
     inkscape:document-units="mm"
     showgrid="false"
     fit-margin-top="0"
     fit-margin-left="0"
     fit-margin-right="0"
     fit-margin-bottom="0"
     inkscape:zoom="0.73139029"
     inkscape:cx="-49.904956"
     inkscape:cy="225.59774"
     inkscape:window-width="1920"
     inkscape:window-height="1007"
     inkscape:window-x="0"
     inkscape:window-y="0"
     inkscape:window-maximized="1"
     inkscape:current-layer="layer1" />
  <defs
     id="defs572" />
  <g
     inkscape:label="Слой 1"
     inkscape:groupmode="layer"
     id="layer1"
     transform="translate(-191.58111,-102.58835)">
    <path
       style="fill:#743a8d;fill-opacity:1;stroke-width:1"
       d="m 195.02765,110.80086 c -0.84308,-0.14765 -1.62567,-0.55122 -2.22535,-1.14755 -0.58501,-0.58177 -0.94892,-1.23761 -1.13761,-2.05024 -0.0893,-0.38449 -0.11121,-1.1196 -0.0454,-1.52093 0.14324,-0.87342 0.54114,-1.64893 1.16966,-2.27962 1.26155,-1.26592 3.17913,-1.5752 4.7769,-0.77045 0.41931,0.21119 0.72386,0.43402 1.0728,0.78491 1.25191,1.25891 1.5555,3.17428 0.75505,4.76353 -0.20739,0.41176 -0.43245,0.7213 -0.7695,1.05835 -0.61947,0.61948 -1.3842,1.01345 -2.25418,1.16132 -0.36157,0.0615 -0.99353,0.0618 -1.34236,6.8e-4 z m 1.18238,-0.75266 c 1.45173,-0.22004 2.58625,-1.34818 2.82288,-2.80702 0.20272,-1.24988 -0.34035,-2.53197 -1.38481,-3.2693 -0.59659,-0.42114 -1.18989,-0.60835 -1.92679,-0.60797 -0.75815,4e-4 -1.36456,0.18883 -1.95965,0.6089 -1.32253,0.93361 -1.79437,2.69479 -1.11387,4.15768 0.63479,1.36461 2.07961,2.14243 3.56224,1.91771 z m -0.89861,-0.48835 c -0.89142,-0.14748 -1.67069,-0.67455 -2.08412,-1.40958 -0.12232,-0.21748 -0.25298,-0.52566 -0.26963,-0.636 l -0.0109,-0.073 0.74096,10e-4 0.74096,0.001 0.0234,0.1822 c 0.0506,0.39395 0.35794,0.80046 0.74115,0.98005 0.16091,0.0754 0.21878,0.085 0.51246,0.085 0.29369,0 0.35156,-0.01 0.51246,-0.085 0.38558,-0.1807 0.6995,-0.59764 0.73914,-0.98176 l 0.0185,-0.17869 h 0.74978 0.74977 l -0.0309,0.11824 c -0.0169,0.065 -0.10071,0.26013 -0.18605,0.43355 -0.17727,0.3601 -0.44898,0.70254 -0.75596,0.95269 -0.26227,0.21371 -0.76087,0.46071 -1.1027,0.54626 -0.29533,0.0739 -0.8354,0.10553 -1.08818,0.0637 z m 0.17795,-1.36048 c -0.27287,-0.0833 -0.48054,-0.31045 -0.54701,-0.59842 -0.0308,-0.13336 -0.0278,-0.19617 0.0185,-0.386 l 0.0553,-0.22672 -0.209,-0.84679 c -0.11494,-0.46573 -0.20437,-0.85139 -0.19875,-0.85703 0.006,-0.006 0.26065,0.29826 0.56669,0.67531 l 0.55645,0.68556 0.1868,0.0519 c 0.66054,0.18365 0.76989,1.09495 0.17045,1.42057 -0.1829,0.0994 -0.43066,0.13307 -0.59942,0.0816 z m -2.6531,-1.47915 v -0.12612 h 0.31532 0.31529 v 0.12612 0.12612 h -0.31529 -0.31532 z m 5.10794,0 v -0.12612 h 0.3153 0.3153 v 0.12612 0.12612 h -0.3153 -0.3153 z m -4.53151,-1.1606 -0.25913,-0.15026 0.0656,-0.10918 c 0.0362,-0.0601 0.0697,-0.11372 0.0748,-0.11927 0.0103,-0.0111 0.51967,0.28024 0.51967,0.29704 0,0.0293 -0.10876,0.2332 -0.12407,0.23261 -0.0103,-3.7e-4 -0.13443,-0.0683 -0.27695,-0.15094 z m 4.2378,0.0402 c -0.0292,-0.0613 -0.0531,-0.11653 -0.0531,-0.12276 0,-0.0149 0.5125,-0.30513 0.5198,-0.29436 0.0916,0.13559 0.11081,0.17031 0.11081,0.2015 0,0.0309 -0.46118,0.32705 -0.5093,0.32705 -0.008,0 -0.039,-0.0501 -0.0682,-0.11143 z m -3.346,-1.02673 c -0.0816,-0.14041 -0.14381,-0.25863 -0.13825,-0.2627 0.0917,-0.0674 0.17346,-0.1126 0.20328,-0.1126 0.0363,0 0.34638,0.49703 0.32299,0.51766 -0.0187,0.0165 -0.2122,0.11294 -0.2266,0.11294 -0.007,0 -0.0799,-0.11488 -0.16142,-0.2553 z m 2.52037,0.20259 c -0.052,-0.0276 -0.0999,-0.0548 -0.1063,-0.0604 -0.0234,-0.0204 0.2868,-0.51752 0.323,-0.51752 0.0298,0 0.11149,0.0452 0.20328,0.11261 0.0158,0.0116 -0.28422,0.51816 -0.30599,0.51674 -0.0106,-6.8e-4 -0.062,-0.0238 -0.11399,-0.0515 z m -1.24545,-0.60942 v -0.31531 h 0.12613 0.12613 v 0.31531 0.3153 h -0.12613 -0.12613 z"
       id="path23511" />
  </g>
</svg>
