<?xml version="1.0" encoding="UTF-8" standalone="no"?>
<!-- Created with Inkscape (http://www.inkscape.org/) -->

<svg
   width="7.9001179mm"
   height="7.8989654mm"
   viewBox="0 0 7.9001179 7.8989654"
   version="1.1"
   id="svg768"
   inkscape:version="1.1.2 (0a00cf5339, 2022-02-04)"
   sodipodi:docname="settings.svg"
   xmlns:inkscape="http://www.inkscape.org/namespaces/inkscape"
   xmlns:sodipodi="http://sodipodi.sourceforge.net/DTD/sodipodi-0.dtd"
   xmlns="http://www.w3.org/2000/svg"
   xmlns:svg="http://www.w3.org/2000/svg">
  <sodipodi:namedview
     id="namedview770"
     pagecolor="#ffffff"
     bordercolor="#cccccc"
     borderopacity="1"
     inkscape:pageshadow="0"
     inkscape:pageopacity="1"
     inkscape:pagecheckerboard="0"
     inkscape:document-units="mm"
     showgrid="false"
     fit-margin-top="0"
     fit-margin-left="0"
     fit-margin-right="0"
     fit-margin-bottom="0"
     inkscape:zoom="0.73139029"
     inkscape:cx="-595.44132"
     inkscape:cy="128.52235"
     inkscape:window-width="1920"
     inkscape:window-height="1007"
     inkscape:window-x="0"
     inkscape:window-y="0"
     inkscape:window-maximized="1"
     inkscape:current-layer="layer1" />
  <defs
     id="defs765" />
  <g
     inkscape:label="Слой 1"
     inkscape:groupmode="layer"
     id="layer1"
     transform="translate(-189.95006,-114.70581)">
    <path
       style="fill:#743a8d;fill-opacity:1;stroke-width:0.999999"
       d="m 192.42548,122.54016 c -0.40277,-0.13141 -0.68437,-0.31936 -0.72578,-0.48431 -0.0133,-0.0543 0.001,-0.14261 0.0521,-0.29427 0.12211,-0.36995 0.0822,-0.63133 -0.13318,-0.87087 -0.0805,-0.0897 -0.1585,-0.14541 -0.24357,-0.17441 -0.15894,-0.0542 -0.47604,-0.0548 -0.68188,-0.001 -0.2855,0.074 -0.40267,0.006 -0.57281,-0.334 -0.1549,-0.30922 -0.20493,-0.64765 -0.11591,-0.78357 0.0245,-0.0373 0.11474,-0.10221 0.20071,-0.1441 0.19365,-0.0944 0.44756,-0.34333 0.52433,-0.51408 0.0857,-0.19051 0.0803,-0.45973 -0.0132,-0.6407 -0.0863,-0.16729 -0.29939,-0.36373 -0.51024,-0.47016 -0.13318,-0.0672 -0.16596,-0.0988 -0.21331,-0.2053 -0.0546,-0.1227 -0.0549,-0.13141 -0.0118,-0.34031 0.0525,-0.25594 0.20224,-0.57251 0.31598,-0.66821 0.0989,-0.0833 0.1664,-0.0856 0.44217,-0.0147 0.26131,0.0677 0.45077,0.0525 0.67284,-0.054 0.18592,-0.0891 0.27905,-0.18241 0.36189,-0.36283 0.0528,-0.11503 0.0616,-0.17783 0.0618,-0.44231 8e-5,-0.16954 -0.008,-0.35686 -0.0212,-0.41625 -0.018,-0.0905 -0.0118,-0.123 0.0408,-0.20104 0.12358,-0.18447 0.46488,-0.35147 0.81891,-0.40073 0.22702,-0.0316 0.29485,0.006 0.40357,0.2221 0.11488,0.22852 0.34914,0.45081 0.54305,0.51522 0.40754,0.13538 0.86937,-0.0744 1.08036,-0.49079 0.037,-0.0732 0.10496,-0.1647 0.15117,-0.20347 0.0709,-0.0597 0.10083,-0.0682 0.19565,-0.0547 0.32185,0.0453 0.6035,0.16758 0.77065,0.33473 0.15992,0.15991 0.17367,0.21748 0.10189,0.42618 -0.0849,0.24693 -0.0814,0.50402 0.0106,0.70316 0.0837,0.18271 0.25145,0.35592 0.41861,0.43204 0.17334,0.0789 0.52001,0.0769 0.72779,-0.004 0.23002,-0.0899 0.3104,-0.0791 0.44395,0.0603 0.12728,0.13273 0.2554,0.42947 0.30572,0.70755 0.0473,0.26149 0.007,0.33589 -0.24925,0.4656 -0.20171,0.10188 -0.37895,0.28058 -0.46903,0.47283 -0.0583,0.12447 -0.0713,0.18988 -0.0701,0.35375 0.003,0.35332 0.17134,0.60776 0.52773,0.79574 0.23921,0.12624 0.30165,0.22289 0.27954,0.43295 -0.0358,0.34104 -0.22734,0.71031 -0.41889,0.80803 -0.12609,0.0643 -0.20555,0.0671 -0.40329,0.0147 -0.32797,-0.088 -0.69936,-0.0301 -0.88543,0.13789 -0.24752,0.22361 -0.32532,0.58606 -0.20449,0.95272 0.0831,0.25246 0.0655,0.35349 -0.0838,0.47751 -0.19387,0.16107 -0.60604,0.32173 -0.82539,0.32173 -0.1177,0 -0.21396,-0.0852 -0.30878,-0.27306 -0.1038,-0.20576 -0.25339,-0.36703 -0.43208,-0.46601 -0.12581,-0.0698 -0.16739,-0.0785 -0.36963,-0.0781 -0.19458,2.8e-4 -0.24742,0.0106 -0.36188,0.0716 -0.18012,0.0955 -0.36805,0.29468 -0.46656,0.49423 -0.12816,0.25971 -0.29424,0.30702 -0.65934,0.18787 z m 2.03058,-2.12226 c 0.45798,-0.1486 0.88597,-0.51206 1.08773,-0.92372 0.15116,-0.30842 0.20129,-0.51874 0.20129,-0.84442 0,-0.32673 -0.0509,-0.53988 -0.19966,-0.83729 -0.20365,-0.40696 -0.57277,-0.73085 -1.02165,-0.89647 -0.29155,-0.1075 -0.70935,-0.13361 -1.02305,-0.0638 -0.39869,0.0886 -0.81191,0.35054 -1.05088,0.66591 -0.77232,1.01915 -0.33068,2.47933 0.87368,2.88869 0.31114,0.1057 0.82535,0.11076 1.13254,0.0118 z"
       id="path54687" />
  </g>
</svg>
